<?xml version="1.0" standalone="no"?>
<!DOCTYPE svg PUBLIC "-//W3C//DTD SVG 20010904//EN"
 "http://www.w3.org/TR/2001/REC-SVG-20010904/DTD/svg10.dtd">
<svg version="1.0" xmlns="http://www.w3.org/2000/svg"
 width="600.000000pt" height="600.000000pt" viewBox="0 0 600.000000 600.000000"
 preserveAspectRatio="xMidYMid meet">
<metadata>
Created by potrace 1.11, written by Peter Selinger 2001-2013
</metadata>
<g transform="translate(0.000000,600.000000) scale(0.100000,-0.100000)"
fill="#000000" stroke="none">
<path d="M1864 5989 c-33 -12 -38 -28 -16 -52 22 -25 112 -390 182 -735 45
-222 79 -343 98 -350 17 -5 15 21 -12 198 -43 272 -96 501 -172 742 -19 60
-34 114 -34 119 0 6 17 9 38 7 l37 -3 47 -250 c94 -501 118 -614 178 -823 69
-243 120 -446 120 -475 0 -14 3 -18 10 -11 13 13 -22 227 -90 554 -101 485
-130 631 -170 840 -22 118 -43 222 -45 230 -4 11 -22 15 -77 16 -40 1 -83 -2
-94 -7z"/>
<path d="M1613 5961 c-35 -22 -39 -31 -24 -46 5 -6 16 -50 25 -100 9 -49 38
-162 64 -250 27 -88 101 -331 165 -540 64 -209 123 -400 132 -425 9 -25 32
-99 50 -165 45 -161 83 -267 84 -235 1 14 -20 86 -45 160 -32 95 -48 162 -54
227 -5 51 -12 105 -16 120 -5 22 -4 26 6 16 22 -20 108 -331 125 -451 22 -158
30 -187 72 -255 29 -49 62 -138 63 -169 0 -5 -11 -8 -24 -8 -14 0 -47 -5 -75
-12 -42 -9 -51 -15 -51 -33 0 -13 7 -28 15 -35 20 -16 19 -79 -1 -108 -12 -17
-16 -56 -19 -175 -17 -827 -27 -1501 -34 -2237 -8 -945 -8 -923 45 -1040 30
-67 44 -82 103 -117 30 -18 62 -28 91 -29 25 -1 70 -9 100 -19 45 -14 126 -19
450 -27 430 -11 678 -2 785 28 33 9 83 20 110 23 28 4 55 10 61 14 29 18 37
106 24 261 -15 190 -17 367 -6 876 9 432 0 707 -31 895 -13 85 -15 154 -9 465
4 201 10 383 14 405 7 36 10 40 36 37 45 -5 180 46 258 97 173 113 306 325
323 515 8 85 -15 268 -43 348 -40 115 -175 276 -283 341 -108 64 -202 88 -364
94 -122 5 -152 3 -225 -16 -117 -30 -212 -78 -301 -154 -96 -82 -130 -136
-175 -278 -20 -63 -40 -117 -43 -121 -9 -10 -364 -14 -379 -4 -6 4 -20 27 -31
51 -14 32 -26 45 -40 45 -33 0 -34 -19 -2 -49 42 -39 41 -61 -3 -61 -58 0 -83
15 -89 52 -10 73 -70 344 -78 358 -26 45 21 -233 57 -335 22 -63 20 -66 -33
-63 l-46 3 -23 85 c-13 47 -23 99 -24 115 0 17 -8 65 -17 107 -13 57 -22 77
-32 75 -11 -1 -23 26 -45 98 -72 248 -271 900 -334 1095 -38 118 -80 260 -92
315 -12 55 -30 109 -40 120 -23 26 -32 68 -21 97 8 21 10 18 24 -27 l15 -50 0
40 c1 61 -7 70 -63 73 -37 2 -59 -3 -82 -17z m67 -86 c0 -14 -4 -25 -9 -25
-12 0 -23 29 -15 41 10 18 24 9 24 -16z m2174 -1541 c38 -9 88 -24 112 -34 49
-22 128 -70 122 -75 -2 -3 -39 9 -81 26 -43 16 -117 36 -165 43 -48 7 -91 15
-97 16 -5 2 -17 1 -25 -3 -8 -3 -46 -11 -85 -17 -278 -48 -425 -166 -469 -376
-8 -37 -20 -70 -28 -75 -21 -14 -88 -11 -94 5 -8 21 65 192 110 260 59 88 178
174 288 210 135 44 275 51 412 20z m-140 -131 c4 -21 10 -89 15 -151 5 -62 12
-116 16 -120 4 -4 5 64 2 151 l-6 157 52 0 c109 0 238 -54 317 -130 47 -46
100 -120 100 -140 0 -6 -17 -18 -37 -27 -21 -8 -87 -40 -148 -70 -196 -97
-180 -109 47 -32 119 40 153 48 164 38 17 -14 16 -14 37 27 15 28 14 32 -1 47
-15 16 -64 138 -58 145 7 6 47 -57 72 -114 78 -177 79 -456 1 -586 -12 -20
-60 -78 -105 -128 -79 -85 -91 -94 -204 -150 -66 -33 -129 -67 -139 -76 -18
-16 -19 -16 -19 -1 0 10 21 28 52 45 28 15 70 43 92 63 23 20 73 52 111 73 96
50 139 87 169 148 30 60 35 118 10 118 -8 0 -34 11 -57 24 -23 14 -80 39 -127
56 -46 17 -100 40 -118 52 -25 15 -39 18 -54 11 -20 -9 -19 -11 18 -40 43 -34
185 -99 254 -117 61 -16 63 -39 8 -101 -43 -49 -183 -165 -199 -165 -5 0 -9
12 -9 27 l0 27 -34 -37 c-64 -70 -91 -36 -31 37 33 40 44 66 28 66 -3 0 -19
-15 -34 -32 -32 -39 -49 -33 -18 5 23 30 15 36 -13 10 -10 -9 -21 -13 -26 -9
-4 4 -9 77 -11 162 -3 149 -2 156 17 161 20 5 20 5 1 24 -11 11 -19 33 -19 53
0 52 -9 66 -40 66 -16 0 -30 4 -32 10 -1 5 -30 17 -63 26 -44 12 -116 18 -275
21 -118 3 -218 8 -222 12 -9 8 76 219 96 239 10 11 40 -7 160 -98 184 -137
246 -171 246 -131 0 18 -262 221 -327 255 -38 19 -40 27 -15 48 55 49 174 84
294 87 l56 1 6 -37z m-359 -423 c182 -5 26 -19 -286 -26 -266 -6 -371 -2 -354
14 6 6 421 19 505 16 19 -1 80 -3 135 -4z m-1014 -39 c4 -3 9 -25 13 -48 l6
-41 -38 -7 c-63 -10 -67 -16 -64 -92 2 -40 -3 -88 -12 -118 -9 -27 -18 -62
-21 -77 -3 -18 -12 -28 -23 -28 -39 0 -42 17 -42 227 l0 202 88 -6 c48 -3 90
-8 93 -12z m220 -7 c47 -3 90 -9 96 -12 6 -4 55 -72 108 -152 105 -157 123
-180 138 -180 15 0 -2 71 -28 115 -13 22 -56 76 -94 120 -39 44 -71 83 -71 88
0 4 64 6 143 5 139 -3 142 -4 145 -25 4 -30 20 -29 33 1 12 26 26 27 501 43
l196 6 6 -44 c3 -24 7 -84 10 -134 3 -49 10 -159 16 -243 17 -232 8 -2098 -10
-2132 -10 -18 -13 -83 -15 -250 -1 -248 -9 -298 -58 -367 -30 -42 -133 -121
-144 -110 -3 4 -1 19 5 34 6 15 18 54 28 86 9 32 26 64 36 71 27 19 33 75 18
169 -10 66 -10 151 0 427 6 190 15 530 19 757 6 381 8 413 25 432 16 17 16 21
4 26 -13 5 -16 71 -22 438 -3 238 -10 448 -15 467 -5 19 -11 52 -14 73 -5 33
-3 39 19 49 19 9 24 19 24 48 0 26 7 43 25 60 32 30 32 55 -2 77 -22 15 -54
19 -178 21 -193 5 -371 -17 -397 -49 -10 -12 -15 -26 -12 -31 10 -16 -17 -28
-62 -28 -70 0 -100 -43 -35 -52 19 -2 27 -15 47 -78 13 -41 22 -81 19 -87 -3
-9 -30 -13 -88 -13 -152 0 -243 -30 -241 -79 1 -20 -4 -21 -83 -21 -71 0 -86
3 -104 21 -28 28 -20 43 24 47 48 4 38 22 -12 22 -21 0 -44 6 -50 14 -8 9 -11
58 -10 144 1 71 -2 135 -5 141 -4 6 -20 8 -35 5 -16 -3 -37 -1 -48 4 -19 11
-46 76 -35 87 3 3 26 3 51 0 25 -2 85 -7 132 -11z m702 -156 c21 -51 39 -59
153 -71 64 -6 108 -16 111 -23 2 -6 -6 -23 -19 -36 -13 -14 -36 -41 -51 -61
-15 -21 -34 -37 -42 -37 -8 0 -15 -12 -17 -27 -2 -19 -8 -27 -18 -24 -8 2 -28
6 -45 9 -16 3 -48 21 -69 40 -55 49 -59 24 -6 -39 22 -27 38 -53 35 -59 -11
-17 -71 -11 -99 11 -41 32 -52 60 -31 75 16 12 14 14 -19 28 -40 17 -70 68
-82 143 -6 40 -6 40 27 47 19 3 52 17 74 30 58 35 82 33 98 -6z m-845 -55 c30
-61 33 -76 30 -147 -2 -68 0 -80 17 -92 17 -13 18 -16 5 -24 -8 -6 -28 -7 -45
-3 -16 3 -42 6 -57 5 -29 -2 -58 28 -58 61 0 14 7 18 28 17 15 -1 43 -1 62 0
32 2 33 2 10 9 -14 5 -36 14 -48 22 -20 12 -24 12 -32 -1 -14 -22 -22 -6 -18
36 4 38 4 38 15 14 l12 -25 0 25 c0 14 -6 34 -14 44 -24 32 -19 77 13 103 15
12 32 22 38 23 5 0 25 -30 42 -67z m40 43 c3 -12 -1 -17 -10 -14 -7 3 -15 13
-16 22 -3 12 1 17 10 14 7 -3 15 -13 16 -22z m1082 -181 c0 -32 -2 -35 -30
-35 -16 0 -30 3 -30 7 0 7 51 63 57 63 2 0 3 -16 3 -35z m-395 -135 c-4 -7
-327 0 -335 7 -15 14 39 23 130 21 78 -1 113 2 135 14 29 15 31 14 52 -10 12
-14 20 -29 18 -32z m-934 -216 c-6 -297 27 -254 46 61 5 76 12 130 18 129 34
-3 65 -156 39 -193 -13 -19 -12 -21 17 -36 22 -12 34 -14 42 -6 28 28 110 4
126 -38 54 -144 131 -411 131 -458 0 -16 -6 -23 -17 -22 -23 1 -71 17 -57 18
10 1 9 42 -4 164 -11 91 -27 68 -29 -40 -4 -152 2 -143 -103 -143 l-89 0 -7
36 c-3 19 -3 103 1 186 6 124 5 150 -6 146 -17 -6 -26 -84 -28 -230 l-1 -106
-53 -89 c-57 -94 -81 -161 -75 -209 l4 -29 14 33 c7 19 33 75 59 125 l46 92 3
-143 c1 -78 -2 -150 -7 -159 -5 -10 -5 -23 0 -32 5 -9 14 -29 19 -45 6 -16 13
-26 16 -23 3 2 5 100 4 215 0 116 3 213 8 216 5 3 50 2 100 -1 l92 -6 -4 -251
c-3 -157 -2 -232 4 -201 4 28 9 139 9 247 l1 197 35 7 c67 12 78 3 107 -89 22
-70 25 -92 17 -126 -6 -26 -5 -57 1 -83 5 -24 10 -46 10 -50 0 -12 -68 -9 -76
3 -4 7 -9 8 -17 0 -7 -7 -7 -14 0 -23 6 -7 13 -24 16 -38 l4 -25 2 27 c1 35
14 42 55 28 18 -6 40 -8 49 -4 15 5 15 8 -2 23 -14 11 -21 36 -26 84 -4 39 -3
67 3 67 16 0 75 -104 77 -137 1 -18 7 -38 12 -45 21 -28 124 -431 113 -442 -6
-6 -3 -14 6 -20 8 -6 24 -45 34 -86 16 -61 19 -66 14 -27 -7 63 -54 255 -105
431 -39 136 -40 164 -7 151 22 -9 49 -75 98 -240 22 -77 58 -194 79 -260 22
-66 60 -190 86 -275 26 -85 55 -180 66 -210 10 -30 30 -102 43 -160 14 -58 32
-125 40 -149 25 -68 2 -82 -29 -17 -9 18 -31 49 -50 69 -19 20 -35 41 -35 47
0 5 -14 47 -31 94 -23 63 -35 86 -50 88 -30 5 -18 23 14 19 20 -2 27 2 27 15
0 15 -8 16 -68 10 -84 -8 -97 1 -106 72 -6 46 -5 52 11 52 10 0 32 -9 48 -20
35 -23 65 -26 65 -6 0 17 -45 56 -100 87 -34 19 -43 31 -55 74 -23 84 -39 225
-26 238 7 7 7 15 -2 25 -6 8 -19 60 -27 115 -10 66 -20 102 -29 105 -11 4 -13
-14 -9 -102 3 -58 3 -108 0 -111 -3 -2 -11 3 -17 12 -12 16 -14 16 -38 0 -57
-37 -64 -4 -12 54 34 38 43 71 27 96 -6 10 -15 10 -40 1 -43 -17 -50 -7 -69
93 -18 102 -22 114 -30 106 -3 -4 2 -47 12 -96 16 -75 16 -94 5 -120 -14 -34
-27 -38 -56 -16 -22 17 -54 20 -54 5 0 -15 58 -66 108 -96 41 -25 54 -44 30
-44 -6 0 -40 16 -75 36 -46 26 -81 56 -129 115 -59 71 -84 92 -84 72 0 -4 17
-24 37 -45 30 -31 34 -38 20 -44 -28 -11 -20 -22 53 -70 80 -53 92 -79 33 -70
-74 10 -318 11 -323 1 -7 -15 83 -23 266 -24 156 -1 161 -2 183 -25 l23 -24
-29 -6 c-15 -3 -59 -10 -98 -16 -38 -6 -90 -20 -114 -31 l-45 -20 -83 36 c-91
39 -158 50 -158 25 0 -9 44 -37 112 -71 62 -30 116 -58 119 -62 4 -3 -7 -22
-25 -42 -17 -20 -59 -83 -92 -140 -44 -75 -67 -105 -80 -105 -16 0 -17 -3 -8
-18 9 -14 8 -26 -6 -52 -26 -51 -36 -20 -29 90 4 66 2 104 -6 125 l-13 30 -11
-45 c-9 -42 -10 -43 -14 -15 -5 42 8 135 19 135 6 0 5 9 -2 22 -19 35 16 1770
37 1836 2 8 15 12 31 10 l28 -3 -4 -191z m261 187 c13 -2 20 -101 8 -116 -6
-7 -14 -25 -18 -38 l-7 -25 -55 27 -55 26 -3 54 c-2 29 -1 59 2 66 4 11 58 13
128 6z m270 -44 c-2 -21 -16 -74 -33 -118 -16 -44 -29 -89 -29 -99 0 -22 -22
-39 -28 -22 -5 16 -32 15 -32 0 0 -7 16 -54 35 -104 50 -133 105 -331 98 -350
-10 -26 25 -44 83 -44 28 0 87 -7 129 -16 43 -9 93 -14 111 -11 18 3 49 1 68
-4 27 -7 54 -5 117 11 125 31 156 25 124 -23 -8 -13 -13 -32 -9 -41 10 -27 43
-18 64 17 30 51 38 57 82 57 l40 0 -6 -207 c-8 -238 -13 -334 -20 -340 -7 -8
-19 105 -13 128 3 12 -3 44 -14 71 -10 27 -19 57 -19 67 0 10 -7 24 -15 31
-12 10 -16 8 -25 -15 -5 -14 -10 -41 -10 -58 l0 -33 -197 4 c-189 3 -199 5
-213 25 -28 40 -50 57 -72 57 -22 -1 -22 -1 5 -23 31 -26 34 -42 11 -51 -31
-12 -64 -6 -86 17 -13 13 -31 29 -42 37 -18 14 -18 13 -12 -18 6 -25 4 -32 -7
-32 -16 0 -27 29 -27 73 0 16 -18 72 -39 125 -22 53 -43 111 -47 127 -8 37
-79 278 -146 490 -47 153 -72 273 -61 301 3 9 34 12 121 11 l117 -2 -3 -38z
m450 21 c13 -9 40 -31 60 -49 l38 -34 -17 -138 -17 -138 -286 3 -285 3 -3 23
c-2 13 3 31 11 40 8 9 18 32 22 51 4 18 18 58 32 88 15 33 26 77 28 111 1 31
3 59 4 61 0 2 89 2 195 -1 153 -4 200 -8 218 -20z m108 -4 c0 -9 -7 -14 -17
-12 -25 5 -28 28 -4 28 12 0 21 -6 21 -16z m134 -16 c18 -25 20 -56 7 -77 -7
-11 -15 -10 -45 8 -39 24 -46 50 -20 75 21 22 40 20 58 -6z m416 -52 c0 -3 -4
-8 -10 -11 -5 -3 -10 -1 -10 4 0 6 5 11 10 11 6 0 10 -2 10 -4z m-447 -71 l35
-15 7 -82 c3 -46 5 -171 3 -278 l-3 -195 -29 -3 c-19 -2 -36 4 -52 19 -30 28
-77 178 -75 239 1 36 42 266 57 318 4 16 14 15 57 -3z m-1024 -14 c8 -5 9 -11
3 -15 -13 -8 -42 3 -42 15 0 11 21 11 39 0z m468 -245 c33 -3 103 -19 155 -35
51 -16 119 -35 151 -41 48 -10 60 -16 68 -38 7 -18 7 -33 -2 -49 -8 -14 -9
-42 -5 -82 8 -72 -3 -74 -48 -8 -18 25 -31 37 -34 29 -2 -7 5 -24 17 -36 38
-41 23 -56 -57 -56 -41 0 -51 4 -74 32 -20 24 -28 28 -28 16 0 -9 5 -20 10
-23 18 -11 11 -25 -12 -25 -12 0 -40 17 -61 38 -38 37 -38 37 -32 10 8 -31 4
-34 -25 -16 -16 10 -23 9 -44 -11 -14 -13 -26 -18 -30 -12 -14 22 -87 295 -82
307 3 8 17 11 38 9 18 -2 61 -7 95 -9z m128 -736 c7 -11 -32 -80 -45 -80 -10
0 -23 67 -15 80 8 13 52 13 60 0z m261 0 c71 -6 146 -13 167 -16 l37 -6 0
-145 c0 -129 -2 -144 -15 -133 -27 22 -31 0 -7 -40 12 -21 22 -46 22 -56 0
-15 -2 -15 -25 0 -13 9 -32 16 -42 16 -13 0 -7 -10 21 -39 37 -38 38 -39 17
-50 -15 -8 -27 -9 -40 -1 -27 14 -41 13 -41 -4 0 -8 9 -17 20 -21 18 -6 90
-84 90 -99 0 -13 -28 -5 -45 14 -10 11 -25 20 -34 20 -10 0 -3 -12 21 -37 43
-46 58 -73 58 -107 0 -32 -11 -33 -57 -1 -20 13 -39 22 -42 20 -2 -3 -2 -6 0
-8 75 -57 99 -82 99 -105 0 -20 -3 -23 -12 -14 -7 7 -19 12 -27 12 -12 -1 -9
-7 9 -21 21 -18 26 -32 32 -103 12 -149 9 -245 -8 -271 -8 -13 -14 -37 -12
-52 3 -24 -1 -28 -25 -31 -25 -3 -30 1 -45 40 -9 24 -38 84 -64 135 -26 51
-48 95 -48 98 0 3 11 5 24 5 13 0 38 3 57 7 26 5 29 8 15 13 -14 5 -7 10 30
22 45 14 76 40 62 53 -9 9 -168 -39 -168 -51 0 -6 -6 -17 -14 -23 -12 -10 -16
-5 -26 26 -7 21 -25 63 -40 93 -16 30 -62 163 -104 295 -109 346 -128 415
-123 429 6 15 130 51 240 70 43 7 80 16 84 20 31 30 -123 25 -217 -8 -41 -14
-76 -23 -79 -20 -9 8 31 73 48 77 28 8 75 7 207 -3z m-400 -571 c7 -53 8 -98
3 -103 -11 -13 -29 36 -29 82 0 21 -4 52 -10 71 -10 36 -5 54 13 48 6 -2 17
-46 23 -98z m-42 5 c15 -59 -20 -85 -51 -38 -16 26 -16 27 6 45 31 25 38 24
45 -7z m-79 -30 c0 -16 -10 -20 -70 -27 -38 -4 -97 -11 -130 -16 -33 -5 -64
-5 -69 -1 -15 14 30 29 135 45 57 9 105 18 108 21 10 10 26 -3 26 -22z m9 -93
c6 -9 22 -116 31 -208 l6 -63 -53 -2 -53 -1 55 -6 55 -6 9 -53 9 -53 -72 -71
c-39 -39 -71 -75 -71 -80 0 -4 -13 -8 -29 -8 -35 0 -48 -15 -31 -35 17 -20 -2
-20 -42 1 -29 15 -32 15 -44 -1 -10 -13 -16 -14 -33 -6 -17 10 -24 8 -38 -9
-24 -28 -39 -25 -87 13 -23 19 -51 39 -63 45 -25 14 -73 16 -73 4 0 -4 22 -30
50 -57 53 -52 54 -78 2 -51 -42 22 -101 93 -108 131 -11 61 44 200 91 231 20
13 41 16 93 11 37 -2 105 -2 152 3 77 6 71 7 -74 8 -180 2 -172 -5 -106 92 49
72 105 130 125 130 8 0 32 -15 52 -33 70 -63 243 -150 243 -124 0 4 -25 23
-56 42 -58 37 -164 131 -164 146 0 15 215 25 224 10z m103 -82 c7 -19 12 -26
12 -16 1 9 5 17 11 17 17 0 28 -33 35 -107 5 -51 4 -73 -4 -73 -6 0 -12 10
-12 23 l-2 22 -4 -23 c-8 -40 -28 -18 -39 44 -6 32 -16 77 -22 99 -15 51 -15
58 1 53 6 -3 17 -20 24 -39z m751 -154 c3 -66 -3 -105 -18 -105 -6 0 -10 36
-10 86 0 64 3 85 13 82 7 -3 13 -28 15 -63z m-1451 -166 c3 -31 2 -70 -2 -86
l-8 -28 -7 25 c-12 39 -11 201 1 171 5 -14 12 -50 16 -82z m753 17 c12 -75 9
-128 -6 -114 -4 5 -34 169 -34 191 0 4 6 7 13 7 9 0 18 -27 27 -84z m93 70 c7
-18 -3 -56 -14 -56 -11 0 -23 46 -14 59 9 15 22 14 28 -3z m151 -138 c40 -136
40 -134 7 -181 -49 -72 -64 -81 -113 -71 -42 9 -43 10 -44 49 -1 22 -3 83 -5
136 -3 73 0 100 11 113 13 17 15 17 26 1 15 -20 34 -12 34 16 0 14 7 19 30 19
28 0 30 -3 54 -82z m-338 -51 c-7 -30 -122 -172 -139 -172 -6 0 -13 12 -15 28
-2 15 1 27 7 27 5 0 13 9 16 20 11 34 117 142 128 131 5 -5 7 -20 3 -34z m142
-134 c4 -44 2 -53 -11 -53 -31 0 -47 67 -31 128 l7 23 15 -22 c9 -13 18 -47
20 -76z m-119 27 c14 -67 14 -70 -6 -70 -14 -1 -12 -4 6 -14 14 -8 28 -22 32
-32 10 -25 11 -102 2 -107 -5 -3 -55 0 -112 5 -96 9 -106 9 -118 -8 -7 -10
-12 -23 -10 -29 8 -23 87 -55 177 -71 52 -9 102 -23 111 -31 13 -11 18 -11 21
-1 3 9 50 14 169 20 167 7 248 22 319 58 22 11 41 20 44 20 3 0 15 -14 27 -31
18 -26 19 -33 8 -44 -32 -32 -172 -66 -352 -87 -179 -20 -186 -20 -387 -3
-355 30 -447 53 -501 128 -34 47 -65 141 -75 226 -7 67 4 79 32 36 9 -13 25
-27 37 -31 12 -4 66 -42 121 -85 54 -44 104 -79 109 -79 14 0 -35 51 -100 102
-81 65 -64 82 27 28 114 -67 152 -70 165 -11 6 29 35 42 78 33 23 -5 22 -15
-9 -51 -14 -17 -21 -31 -14 -31 12 0 70 59 70 72 0 5 19 9 43 10 36 1 38 2 10
5 -18 2 -33 8 -33 12 0 12 80 111 90 111 5 0 13 -23 19 -50z m-668 -71 c27
-170 75 -260 171 -323 90 -59 107 -62 653 -96 217 -14 393 -6 482 21 82 25 99
39 84 67 -9 17 -6 21 35 37 24 9 67 34 94 56 59 46 80 50 80 13 0 -21 -4 -25
-20 -21 -11 3 -20 3 -20 0 0 -3 9 -16 20 -30 11 -14 20 -35 20 -46 0 -19 -4
-17 -35 13 -47 45 -52 35 -9 -19 18 -24 34 -49 34 -56 0 -26 -15 -23 -41 7
-27 32 -28 33 -42 13 -9 -11 -19 -20 -24 -21 -19 -2 -60 -23 -72 -38 -7 -9
-22 -16 -32 -16 -10 0 -21 -4 -24 -10 -3 -5 -15 -10 -26 -10 -10 0 -28 -6 -39
-12 -15 -10 -22 -10 -31 -1 -10 10 -15 9 -25 -4 -10 -14 -16 -15 -37 -6 -14 7
-27 8 -29 4 -2 -4 -52 -4 -113 -1 -76 5 -139 3 -205 -7 -54 -8 -121 -12 -155
-8 -60 6 -60 6 -35 -12 21 -15 48 -18 185 -19 88 -1 178 -4 200 -8 55 -9 150
-7 221 4 57 10 60 9 82 -16 13 -14 21 -31 19 -37 -5 -15 -98 -34 -242 -47
-129 -13 -862 -9 -902 5 -31 10 -29 30 6 55 29 20 31 20 90 4 77 -22 124 -11
129 27 4 35 -22 51 -153 94 -133 43 -175 73 -211 147 -33 69 -57 93 -103 103
l-34 7 7 82 c3 44 6 112 6 149 0 103 21 81 41 -44z m1039 -22 c0 -76 25 -99
75 -73 30 16 55 11 55 -10 0 -15 -41 -29 -62 -21 -7 2 -24 -1 -38 -8 -30 -15
-170 -30 -170 -19 0 5 20 36 44 69 25 33 52 70 61 83 21 28 35 20 35 -21z
m-235 -55 c27 -57 55 -58 48 -2 -6 39 -5 40 26 40 17 0 31 -5 31 -11 0 -14
-32 -69 -41 -69 -4 0 -9 -9 -12 -21 -5 -17 -12 -20 -49 -17 l-43 3 -7 50 c-13
87 12 101 47 27z m656 -457 c37 12 43 -8 8 -26 -47 -25 -74 -23 -98 7 -28 36
-19 44 30 28 23 -8 50 -12 60 -9z"/>
<path d="M2592 2240 c0 -19 4 -48 8 -65 l8 -30 0 35 c0 19 -4 49 -8 65 l-8 30
0 -35z"/>
<path d="M2140 1957 c0 -21 58 -70 159 -136 63 -41 98 -58 105 -51 12 12 -21
49 -89 98 -27 20 -67 51 -88 69 -37 33 -87 45 -87 20z"/>
<path d="M2274 1955 c-8 -20 0 -29 52 -65 51 -34 69 -33 38 3 -11 12 -28 34
-37 50 -19 29 -44 36 -53 12z"/>
<path d="M2618 3124 c-30 -16 -34 -33 -18 -65 15 -26 30 -24 70 10 29 25 33
32 24 48 -14 24 -42 26 -76 7z"/>
<path d="M2926 2391 c-9 -14 111 -31 210 -29 49 0 73 3 54 5 -95 9 -227 25
-242 29 -9 3 -19 1 -22 -5z"/>
<path d="M3015 1760 c4 -6 38 -26 75 -45 68 -34 100 -70 100 -111 0 -9 11 -29
25 -46 14 -16 25 -37 25 -45 0 -41 23 -142 31 -137 14 8 11 52 -11 150 -16 72
-17 95 -8 121 13 37 -1 63 -34 63 -11 0 -50 14 -88 30 -68 30 -127 40 -115 20z"/>
<path d="M3270 1582 c0 -12 23 -32 37 -32 7 0 13 9 13 20 0 15 -7 20 -25 20
-14 0 -25 -4 -25 -8z"/>
<path d="M3320 1525 c7 -8 17 -15 22 -15 6 0 5 7 -2 15 -7 8 -17 15 -22 15 -6
0 -5 -7 2 -15z"/>
<path d="M2840 1196 c0 -20 5 -36 10 -36 6 0 10 13 10 29 0 17 -4 33 -10 36
-6 4 -10 -8 -10 -29z"/>
</g>
</svg>
